HIERARCHY
ROOT Junyuan_V1:Solving:Hips
{
	OFFSET 0.000000 0.000000 0.000000
	CHANNELS 6 Xposition Yposition Zposition Xrotation Yrotation Zrotation
	JOINT Junyuan_V1:Solving:Spine
	{
		OFFSET 0.000000 -8.943189 2.778120
		CHANNELS 6 Xposition Yposition Zposition Xrotation Yrotation Zrotation
		JOINT Junyuan_V1:Solving:Spine1
		{
			OFFSET 0.000000 -9.944814 1.753542
			CHANNELS 6 Xposition Yposition Zposition Xrotation Yrotation Zrotation
			JOINT Junyuan_V1:Solving:Spine2
			{
				OFFSET 0.000000 -10.059801 0.880121
				CHANNELS 6 Xposition Yposition Zposition Xrotation Yrotation Zrotation
				JOINT Junyuan_V1:Solving:Spine3
				{
					OFFSET 0.000000 -10.098228 0.000000
					CHANNELS 6 Xposition Yposition Zposition Xrotation Yrotation Zrotation
					JOINT Junyuan_V1:Solving:Neck
					{
						OFFSET 0.000000 -12.983437 -1.298342
						CHANNELS 6 Xposition Yposition Zposition Xrotation Yrotation Zrotation
						JOINT Junyuan_V1:Solving:Neck1
						{
							OFFSET 0.000000 -8.085114 -0.707354
							CHANNELS 6 Xposition Yposition Zposition Xrotation Yrotation Zrotation
							JOINT Junyuan_V1:Solving:Head
							{
								OFFSET 0.000000 -7.992695 -1.409326
								CHANNELS 6 Xposition Yposition Zposition Xrotation Yrotation Zrotation
								JOINT Junyuan_V1:Solving:HeadEnd
								{
									OFFSET 0.000000 -9.728081 0.000002
									CHANNELS 6 Xposition Yposition Zposition Xrotation Yrotation Zrotation
									End Site
									{
										OFFSET 0.000000 -9.728081 0.000002
									}
								}
							}
						}
					}
					JOINT Junyuan_V1:Solving:RightShoulder
					{
						OFFSET 0.000000 -9.273884 -6.154356
						CHANNELS 6 Xposition Yposition Zposition Xrotation Yrotation Zrotation
						JOINT Junyuan_V1:Solving:RightArm
						{
							OFFSET -19.110832 -0.000008 0.000000
							CHANNELS 6 Xposition Yposition Zposition Xrotation Yrotation Zrotation
							JOINT Junyuan_V1:Solving:RightForeArm
							{
								OFFSET -27.916382 -0.000008 0.000000
								CHANNELS 6 Xposition Yposition Zposition Xrotation Yrotation Zrotation
								JOINT Junyuan_V1:Solving:RightHand
								{
									OFFSET -21.757072 -0.000008 0.000000
									CHANNELS 6 Xposition Yposition Zposition Xrotation Yrotation Zrotation
									JOINT Junyuan_V1:Solving:RightHandThumb1
									{
										OFFSET -3.656471 2.766285 -2.718907
										CHANNELS 6 Xposition Yposition Zposition Xrotation Yrotation Zrotation
										End Site
										{
											OFFSET -5.307442 0.000000 -5.356520
										}
									}
									JOINT Junyuan_V1:Solving:RightHandMiddle1
									{
										OFFSET -9.750572 -0.000004 0.062504
										CHANNELS 6 Xposition Yposition Zposition Xrotation Yrotation Zrotation
										End Site
										{
											OFFSET -7.540642 -0.000004 0.000000
										}
									}
								}
							}
						}
					}
					JOINT Junyuan_V1:Solving:LeftShoulder
					{
						OFFSET 0.000000 -9.273884 -6.154356
						CHANNELS 6 Xposition Yposition Zposition Xrotation Yrotation Zrotation
						JOINT Junyuan_V1:Solving:LeftArm
						{
							OFFSET 19.110832 -0.000008 0.000000
							CHANNELS 6 Xposition Yposition Zposition Xrotation Yrotation Zrotation
							JOINT Junyuan_V1:Solving:LeftForeArm
							{
								OFFSET 27.916382 -0.000008 0.000000
								CHANNELS 6 Xposition Yposition Zposition Xrotation Yrotation Zrotation
								JOINT Junyuan_V1:Solving:LeftHand
								{
									OFFSET 21.757072 -0.000008 0.000000
									CHANNELS 6 Xposition Yposition Zposition Xrotation Yrotation Zrotation
									JOINT Junyuan_V1:Solving:LeftHandThumb1
									{
										OFFSET 3.656471 2.766285 -2.718907
										CHANNELS 6 Xposition Yposition Zposition Xrotation Yrotation Zrotation
										End Site
										{
											OFFSET 5.307442 0.000000 -5.356520
										}
									}
									JOINT Junyuan_V1:Solving:LeftHandMiddle1
									{
										OFFSET 9.750572 -0.000004 0.062504
										CHANNELS 6 Xposition Yposition Zposition Xrotation Yrotation Zrotation
										End Site
										{
											OFFSET 7.540642 -0.000004 0.000000
										}
									}
								}
							}
						}
					}
				}
			}
		}
	}
	JOINT Junyuan_V1:Solving:RightUpLeg
	{
		OFFSET -8.521003 0.000000 0.000000
		CHANNELS 6 Xposition Yposition Zposition Xrotation Yrotation Zrotation
		JOINT Junyuan_V1:Solving:RightLeg
		{
			OFFSET 0.000000 41.622898 -0.000006
			CHANNELS 6 Xposition Yposition Zposition Xrotation Yrotation Zrotation
			JOINT Junyuan_V1:Solving:RightFoot
			{
				OFFSET 0.000000 37.258389 -0.000006
				CHANNELS 6 Xposition Yposition Zposition Xrotation Yrotation Zrotation
				JOINT Junyuan_V1:Solving:RightForeFoot
				{
					OFFSET 0.000000 3.234154 -0.000000
					CHANNELS 6 Xposition Yposition Zposition Xrotation Yrotation Zrotation
					JOINT Junyuan_V1:Solving:RightToeBase
					{
						OFFSET 0.000000 0.000000 -12.665958
						CHANNELS 6 Xposition Yposition Zposition Xrotation Yrotation Zrotation
						JOINT Junyuan_V1:Solving:RightToeBaseEnd
						{
							OFFSET 0.000000 0.000000 -2.833065
							CHANNELS 6 Xposition Yposition Zposition Xrotation Yrotation Zrotation
							End Site
							{
								OFFSET 0.000000 -2.833061 0.000002
							}
						}
					}
				}
			}
		}
	}
	JOINT Junyuan_V1:Solving:LeftUpLeg
	{
		OFFSET 8.521003 0.000000 0.000000
		CHANNELS 6 Xposition Yposition Zposition Xrotation Yrotation Zrotation
		JOINT Junyuan_V1:Solving:LeftLeg
		{
			OFFSET 0.000000 41.622898 -0.000006
			CHANNELS 6 Xposition Yposition Zposition Xrotation Yrotation Zrotation
			JOINT Junyuan_V1:Solving:LeftFoot
			{
				OFFSET 0.000000 37.258389 -0.000006
				CHANNELS 6 Xposition Yposition Zposition Xrotation Yrotation Zrotation
				JOINT Junyuan_V1:Solving:LeftForeFoot
				{
					OFFSET 0.000000 3.234154 -0.000000
					CHANNELS 6 Xposition Yposition Zposition Xrotation Yrotation Zrotation
					JOINT Junyuan_V1:Solving:LeftToeBase
					{
						OFFSET 0.000000 0.000000 -12.665958
						CHANNELS 6 Xposition Yposition Zposition Xrotation Yrotation Zrotation
						JOINT Junyuan_V1:Solving:LeftToeBaseEnd
						{
							OFFSET 0.000000 0.000000 -4.326123
							CHANNELS 6 Xposition Yposition Zposition Xrotation Yrotation Zrotation
							End Site
							{
								OFFSET 0.000000 -4.326126 0.000000
							}
						}
					}
				}
			}
		}
	}
}
MOTION
Frames: 4
Frame Time: 0.041667
39.014271 -33.270500 -87.859474 -55.925637 101.395825 150.212444 0.000008 -8.943191 2.778127 17.389209 0.385450 -1.287132 -0.000003 -9.944814 1.753530 0.457669 0.069015 -0.001462 -0.000004 -10.059775 0.880108 -4.888636 -1.213623 -0.451414 0.000003 -10.098234 0.000002 -4.407243 -0.003820 0.893949 -0.000000 -12.983424 -1.298332 7.493708 2.474763 3.547551 0.000001 -8.085118 -0.707358 -5.773782 10.522217 3.123080 0.000005 -7.992657 -1.409334 -4.756775 0.308529 1.221032 -0.000008 -9.728081 -0.000004 0.000000 0.000000 0.000001 -0.000002 -9.273911 -6.154345 -0.000003 18.456003 26.543348 -19.110809 -0.000012 -0.000013 -58.524210 5.953173 -71.630666 -27.916376 -0.000008 0.000022 73.569436 -61.197867 71.400441 -21.757067 0.000003 -0.000001 -0.753039 7.734518 5.577986 -3.656480 2.766282 -2.718917 -0.000002 -0.000002 -0.000002 -9.750582 0.000017 0.062492 0.000000 -0.000004 -0.000002 0.000001 -9.273907 -6.154344 -0.000003 -15.265807 -10.438203 19.110819 -0.000018 0.000021 -4.671797 47.560120 88.921393 27.916370 0.000002 0.000008 19.728040 36.821683 -12.129545 21.757069 -0.000006 0.000002 -0.306780 0.788978 21.248869 3.656498 2.766270 -2.718913 -0.000001 -0.000010 0.000005 9.750610 -0.000008 0.062498 0.000002 -0.000001 -0.000000 -8.521001 -0.000006 0.000003 -5.862108 20.645575 -3.452389 -0.000006 41.622902 -0.000002 -0.595595 0.000001 -0.000000 0.000013 37.258404 -0.000007 9.318351 -2.616781 8.038592 0.000001 3.234139 0.000000 -0.000000 0.000000 -0.000001 0.000005 -0.000007 -12.665957 -1.473388 -0.000001 -0.000002 -0.000001 -0.000008 -2.833066 -0.000001 0.000002 0.000000 8.521015 0.000004 0.000007 -8.292044 -2.997468 -13.887518 0.000003 41.622898 -0.000007 -2.531805 0.000001 0.000001 -0.000004 37.258392 -0.000009 13.647626 13.362772 14.092816 0.000002 3.234146 0.000005 -0.000000 -0.000000 -0.000001 0.000002 -0.000003 -12.665962 0.591298 0.000000 0.000000 0.000001 -0.000007 -4.326128 0.000002 0.000000 -0.000001 
39.042339 -33.256775 -87.858269 -55.555058 101.276809 149.824817 0.000001 -8.943203 2.778113 17.401317 0.391289 -1.293213 -0.000002 -9.944805 1.753540 0.466770 0.068352 0.002039 -0.000002 -10.059811 0.880108 -4.880230 -1.255338 -0.455862 0.000001 -10.098204 0.000006 -4.410160 -0.002269 0.908000 -0.000002 -12.983404 -1.298342 7.479616 2.411724 3.599156 -0.000000 -8.085114 -0.707368 -5.806767 10.465241 3.143432 -0.000003 -7.992688 -1.409327 -4.771468 0.299811 1.234091 0.000004 -9.728058 0.000007 0.000000 0.000000 0.000001 -0.000003 -9.273846 -6.154352 -0.000008 18.519653 26.673630 -19.110826 0.000009 -0.000003 -58.570033 6.278729 -73.403230 -27.916401 0.000002 0.000020 74.404891 -60.118902 72.156256 -21.757074 0.000026 0.000000 -0.699718 7.195730 5.568797 -3.656465 2.766287 -2.718907 0.000002 -0.000000 -0.000002 -9.750553 0.000016 0.062497 -0.000004 0.000000 0.000005 0.000006 -9.273842 -6.154353 -0.000010 -15.257715 -10.437664 19.110811 -0.000014 0.000014 -4.597714 47.759715 88.925593 27.916397 -0.000007 -0.000002 20.993505 36.573081 -12.879117 21.757063 0.000002 -0.000012 -0.422574 1.139976 20.340722 3.656492 2.766288 -2.718906 0.000010 -0.000003 -0.000003 9.750590 0.000005 0.062503 0.000004 -0.000000 -0.000006 -8.521011 -0.000025 -0.000010 -5.875008 20.455605 -3.439459 0.000004 41.622913 -0.000013 -0.661086 -0.000003 0.000000 -0.000012 37.258389 -0.000010 9.374459 -2.554718 8.011988 0.000001 3.234146 0.000001 -0.000000 -0.000001 -0.000000 0.000008 -0.000000 -12.665959 -1.430512 -0.000002 -0.000000 0.000011 0.000001 -2.833061 0.000002 -0.000001 0.000000 8.520998 -0.000020 -0.000005 -8.353586 -3.270909 -13.874219 -0.000003 41.622921 -0.000015 -2.482315 -0.000002 -0.000002 0.000000 37.258396 -0.000001 13.622724 13.516958 14.059889 -0.000001 3.234146 0.000001 -0.000001 0.000000 -0.000000 -0.000000 0.000011 -12.665959 0.561644 0.000000 0.000001 -0.000003 -0.000008 -4.326127 -0.000000 0.000000 -0.000000 
39.069805 -33.247677 -87.856529 -55.113336 101.142705 149.368874 -0.000002 -8.943184 2.778113 17.410261 0.394522 -1.295558 -0.000007 -9.944809 1.753536 0.473019 0.066410 0.003929 -0.000000 -10.059772 0.880116 -4.866126 -1.315816 -0.461051 -0.000000 -10.098232 0.000016 -4.413337 -0.001665 0.908935 -0.000001 -12.983418 -1.298328 7.489232 2.359250 3.651118 0.000005 -8.085135 -0.707340 -5.850328 10.463758 3.180234 0.000005 -7.992693 -1.409328 -4.819851 0.285729 1.265268 -0.000000 -9.728073 -0.000002 0.000000 0.000000 -0.000000 -0.000005 -9.273869 -6.154337 -0.000011 18.679268 26.858662 -19.110802 0.000001 -0.000002 -58.734935 6.898976 -75.596889 -27.916386 0.000024 0.000012 74.874057 -58.644831 72.435652 -21.757063 0.000003 -0.000002 -0.580489 6.100561 5.445911 -3.656456 2.766310 -2.718909 -0.000004 0.000007 0.000001 -9.750570 0.000011 0.062499 0.000003 -0.000001 0.000002 0.000006 -9.273865 -6.154339 -0.000011 -15.203245 -10.443387 19.110826 -0.000033 0.000025 -4.499647 48.285435 89.034193 27.916399 0.000001 0.000005 24.188490 35.829284 -14.731637 21.757088 -0.000012 -0.000001 -0.604069 1.851216 18.075623 3.656468 2.766276 -2.718904 -0.000008 0.000010 0.000006 9.750564 0.000001 0.062491 -0.000011 0.000009 -0.000001 -8.521004 0.000010 0.000006 -5.943641 20.664314 -3.413580 0.000003 41.622883 -0.000009 -0.565596 -0.000000 0.000000 -0.000000 37.258400 -0.000000 9.317941 -2.904177 8.021673 -0.000009 3.234146 0.000005 0.000001 0.000000 0.000001 -0.000004 -0.000013 -12.665956 -1.334736 -0.000002 -0.000001 0.000003 -0.000008 -2.833056 -0.000000 -0.000000 -0.000000 8.521000 0.000002 -0.000003 -8.340855 -3.384729 -13.868533 0.000001 41.622921 -0.000015 -2.496197 0.000001 -0.000000 -0.000002 37.258392 -0.000010 13.607493 13.477369 14.086173 0.000000 3.234154 0.000009 -0.000002 -0.000000 -0.000001 -0.000003 0.000001 -12.665960 0.638117 -0.000000 -0.000000 -0.000001 -0.000015 -4.326121 0.000001 0.000000 -0.000001 
39.101349 -33.237408 -87.853149 -54.523860 101.015083 148.775590 0.000005 -8.943198 2.778115 17.398370 0.388239 -1.300130 -0.000001 -9.944826 1.753553 0.475771 0.065321 -0.002844 0.000001 -10.059800 0.880125 -4.865095 -1.375231 -0.463868 -0.000005 -10.098210 0.000004 -4.402226 -0.005747 0.914558 0.000001 -12.983449 -1.298341 7.486924 2.307233 3.712418 -0.000002 -8.085093 -0.707365 -5.881081 10.470160 3.211950 0.000003 -7.992683 -1.409333 -4.872863 0.270723 1.300401 -0.000001 -9.728073 -0.000002 -0.000001 0.000000 0.000000 -0.000005 -9.273891 -6.154357 -0.000004 18.472692 26.841650 -19.110834 -0.000003 0.000004 -58.367785 6.476443 -76.839253 -27.916378 -0.000024 0.000012 75.359424 -57.784316 72.840696 -21.757082 0.000002 0.000005 -0.617125 5.684625 6.206094 -3.656458 2.766300 -2.718913 0.000007 0.000003 -0.000002 -9.750596 -0.000016 0.062492 0.000006 -0.000002 -0.000001 0.000001 -9.273872 -6.154360 -0.000003 -15.202312 -10.438806 19.110813 -0.000024 0.000008 -4.484365 48.498892 89.071083 27.916374 -0.000005 -0.000001 25.126541 35.652959 -15.289252 21.757053 -0.000013 0.000003 -0.581483 1.867256 17.300365 3.656503 2.766276 -2.718893 0.000004 -0.000002 0.000001 9.750608 -0.000005 0.062514 0.000005 0.000002 -0.000002 -8.521006 -0.000005 -0.000011 -6.027814 20.791480 -3.400475 0.000006 41.622887 -0.000001 -0.504003 0.000001 0.000000 0.000004 37.258389 -0.000007 9.323070 -3.187813 8.076953 0.000007 3.234146 -0.000003 -0.000001 0.000001 -0.000001 0.000003 -0.000007 -12.665967 -1.388530 0.000001 -0.000001 -0.000005 -0.000015 -2.833073 -0.000001 0.000001 0.000001 8.521005 -0.000023 -0.000008 -8.336759 -3.442104 -13.869843 -0.000001 41.622929 -0.000013 -2.516780 0.000001 0.000002 0.000001 37.258377 -0.000007 13.592379 13.378236 14.145645 0.000004 3.234146 0.000007 -0.000001 0.000000 -0.000001 0.000002 -0.000008 -12.665959 0.591482 0.000000 -0.000000 -0.000001 -0.000015 -4.326116 -0.000000 0.000000 -0.000000 
